<svg version="1.2" xmlns="http://www.w3.org/2000/svg" viewBox="0 0 217 88" width="217" height="88">
	<title>logo-svg</title>
	<style>
		.s0 { fill: #4d62a9 } 
		.s1 { fill: #e31e24 } 
		.s2 { fill: #7d8e28 } 
		.s3 { fill: #ffed00 } 
		.s4 { fill: #2b2a29 } 
		.s5 { fill: #728125 } 
		.s6 { fill: #5b5b5b } 
	</style>
	<path id="Layer" fill-rule="evenodd" class="s0" d="m8.4 1.8c2.6-0.3 5 1.5 5.3 4.1l2.8 23.9c0.3 2.5-1.6 4.9-4.1 5.2-2.6 0.3-5-1.6-5.3-4.1l-2.8-23.9c-0.3-2.6 1.6-4.9 4.1-5.2z"/>
	<path id="Layer" fill-rule="evenodd" class="s1" d="m26 0c2.5 0.4 4.3 2.8 4 5.3l-3.7 26.9c-0.3 2.6-2.7 4.4-5.3 4.1-2.5-0.4-4.3-2.8-4-5.3l3.6-26.9c0.4-2.6 2.8-4.4 5.4-4.1z"/>
	<path id="Layer" fill-rule="evenodd" class="s2" d="m24.6 49.9c0.2 2.6-1.7 4.9-4.3 5.1l-15.2 1.3c-2.6 0.2-4.9-1.8-5.1-4.4-0.2-2.5 1.7-4.8 4.3-5l15.2-1.3c2.6-0.2 4.9 1.7 5.1 4.3z"/>
	<path id="Layer" fill-rule="evenodd" class="s3" d="m34.7 26.2c2.5 0.9 3.7 3.6 2.7 6.1l-4.1 10.5c-0.9 2.4-3.7 3.6-6.1 2.7-2.4-0.9-3.6-3.7-2.7-6.1l4.1-10.5c1-2.5 3.7-3.7 6.1-2.7z"/>
	<path id="Layer" fill-rule="evenodd" class="s4" d="m43.7 34.2c1.7 1.1 2.2 3.3 1.2 5l-4.7 7.5c-1.1 1.7-3.3 2.2-5 1.2-1.8-1.1-2.3-3.4-1.2-5.1l4.6-7.5c1.1-1.7 3.4-2.2 5.1-1.1z"/>
	<path id="Layer" fill-rule="evenodd" class="s5" d="m34.4 49.1c-1.1-0.7-1.8-1.7-2.2-2.8-1.6 1-3.6 1.3-5.5 0.6-3.2-1.3-4.7-4.9-3.5-8l0.4-1.1-12.2-1.6c-2.5-0.3-5 2.1-4.5 4.5l0.8 4.4 11.7-0.9c1.6-0.2 3.2 0.4 4.5 1.4 1.2 1.1 2 2.6 2.1 4.2 0.2 1.6-0.4 3.2-1.4 4.5-1.1 1.2-2.6 2-4.2 2.1l-10.2 0.9 1 5.2c0.5 2.4 2.1 4.5 4.6 4.5h14.9c2.5 0 4.1-2.1 4.6-4.5l2.9-12.8c-1.3 0.3-2.7 0.1-3.8-0.6z"/>
	<path id="Layer" fill-rule="evenodd" class="s4" d="m157.7 64.1q0 0.7-0.5 1.2-0.5 0.5-1.2 0.5-0.6 0-1.1-0.5l-0.2-0.3-0.2-0.2q-1.5 1-3.6 1-2.7 0-4.7-2-1.9-1.9-2-4.7v-8.4q0-0.6 0.5-1.1 0.5-0.5 1.1-0.5 0.7 0 1.2 0.5 0.5 0.5 0.5 1.1v8.3q0 1.5 1 2.5 1 1 2.4 1 1.5 0 2.5-1 0.9-0.9 1-2.2v-8.6q0-0.6 0.5-1.1 0.5-0.5 1.1-0.5 0.6 0 1.2 0.5 0.5 0.5 0.5 1.1zm-15.5 0.1q0 0.7-0.5 1.1-0.5 0.5-1.2 0.5-0.6 0-1.1-0.5-0.5-0.4-0.5-1.1v-8.4q0-1.4-1-2.4-1.1-1-2.4-1-1.3 0-2.4 1-1 1-1 2.4v8.4q0 0.7-0.4 1.1-0.5 0.5-1.2 0.5-0.7 0-1.2-0.5-0.5-0.4-0.5-1.1v-8.4q0-1.4-0.9-2.4-1.1-1-2.4-1-1.4 0-2.4 1-1 1-1 2.4v8.4q0 0.7-0.5 1.1-0.5 0.5-1.2 0.5-0.6 0-1.1-0.5-0.5-0.4-0.5-1.1v-8.4q0-2.7 1.9-4.7 2-2 4.8-2 3.1 0 5 2.3 1.9-2.3 5-2.3 2.8 0 4.7 2 2 2 2 4.7 0 0.1 0 0.1 0 0 0 0.2zm-25.3-0.1q0 0.7-0.5 1.2-0.5 0.4-1.2 0.4-0.5 0-1-0.4-0.6-0.6-0.6-1.2-2.1 1.6-4.9 1.6-3.5 0-6-2.3-2.4-2.3-2.4-5.8 0-3.5 2.4-6 2.5-2.4 6-2.4 3.5 0 5.8 2.4 2.4 2.4 2.4 6zm-11.8-3.1q1.4 1.5 3.6 1.5 2.1 0 3.5-1.5 1.4-1.4 1.4-3.5 0-2.1-1.4-3.6-1.4-1.5-3.5-1.5-2.1 0-3.6 1.5-1.6 1.6-1.6 3.6 0 2.1 1.6 3.5zm-16.1-10.4q0 2.1 1.5 3.6 1.5 1.5 3.6 1.5 1.2 0 1.8-0.3v-4.8q0-0.6 0.5-1.1 0.6-0.5 1.2-0.5 0.6 0 1.1 0.5 0.5 0.5 0.5 1.1v13.4q0 0.7-0.5 1.2-0.5 0.5-1.1 0.5-0.7 0-1.2-0.5-0.5-0.5-0.5-1.2v-5.5q-0.7 0.5-1.8 0.5-3.5 0-5.9-2.5-2.5-2.4-2.5-5.9 0-0.6 0.5-1.1 0.5-0.5 1.1-0.5 0.7 0 1.2 0.5 0.4 0.4 0.5 1.1zm-17.7 8.4q0.5 1.6 1.8 2.5 1.3 1 2.9 1 0.7 0 0.7-0.1h0.3 0.2l0.2-0.1h0.2q1-0.2 2.2-0.9 0.5-0.4 1.2-0.1 0.7 0.2 1 0.8 0.6 1.3-0.8 2.2-1.7 1-3 1.3h-0.2l-0.3 0.1h-0.3-0.4l-0.5 0.1h-0.5q-3.4 0-5.9-2.5-2.4-2.4-2.4-5.9 0-3.5 2.4-5.9 2.4-2.4 5.9-2.4 3.4 0 5.7 2.1 2.7 2.4 2.7 6.2 0 0.6-0.5 1.2-0.5 0.4-1.2 0.4zm9.6-3.3q-0.5-1.6-1.9-2.5-1.2-0.8-2.9-0.8-1.6 0-3 0.9-1.3 1-1.8 2.4zm-17.7 0.1q0-1.4-1-2.4-1-1-2.4-1-1.5 0-2.4 1-1 1-1 2.4v8.4q0 0.6-0.5 1.1-0.6 0.5-1.2 0.5-0.6 0-1.2-0.5-0.4-0.5-0.4-1.1v-8.4q0-2.8 2-4.7 1.9-2 4.7-2 2.8 0 4.7 2 2 1.9 2 4.7v8.4q0 0.6-0.4 1.1-0.6 0.5-1.2 0.5-0.7 0-1.2-0.5-0.5-0.5-0.5-1.1z"/>
	<path id="Layer" fill-rule="evenodd" class="s4" d="m216.6 38.7q0 0.7-0.5 1.2-0.5 0.5-1.2 0.5-0.6 0-1.1-0.5-0.5-0.5-0.5-1.2v-8.3q0-1.4-1-2.4-1.1-1-2.4-1-1.3 0-2.4 1-1 1-1 2.4v8.3q0 0.7-0.5 1.2-0.5 0.5-1.1 0.5-0.7 0-1.2-0.5-0.5-0.5-0.5-1.2v-8.3q0-1.4-0.9-2.4-1.1-1-2.4-1-1.4 0-2.4 1-1 1-1 2.4v8.3q0 0.7-0.5 1.2-0.5 0.5-1.2 0.5-0.7 0-1.1-0.5-0.5-0.5-0.5-1.2v-8.3q0-2.8 1.9-4.7 2-2 4.8-2 3.1 0 5 2.3 1.9-2.3 5-2.3 2.8 0 4.7 2 2 1.9 2 4.7 0 0.1-0.1 0.1 0.1 0 0.1 0.2zm-25.5-0.2q0 0.7-0.5 1.2-0.5 0.5-1.1 0.5-0.7 0-1.2-0.5-0.5-0.5-0.5-1.2v-5h-6.9v5q0 0.7-0.5 1.2-0.5 0.5-1.2 0.5-0.6 0-1.1-0.5-0.5-0.5-0.5-1.2v-13.4q0-0.6 0.5-1.1 0.5-0.5 1.1-0.5 0.6 0 1.2 0.5 0.5 0.5 0.5 1.1v5.1h6.9v-5.1q0-0.6 0.5-1.1 0.6-0.5 1.2-0.5 0.6 0 1.1 0.5 0.5 0.5 0.5 1.1zm-28-5q0.6 1.6 1.9 2.5 1.3 1 2.9 1 0.6 0 0.7-0.1h0.2 0.3l0.2-0.1h0.2q1-0.2 2.1-0.9 0.6-0.4 1.3-0.1 0.7 0.2 0.9 0.8 0.6 1.3-0.8 2.2-1.6 1-2.9 1.3h-0.2l-0.3 0.1h-0.3-0.4l-0.5 0.1h-0.5q-3.4 0-5.9-2.5-2.4-2.4-2.4-5.9 0-3.5 2.4-5.9 2.4-2.4 5.9-2.4 3.4 0 5.7 2.1 2.7 2.4 2.7 6.2 0 0.6-0.5 1.2-0.6 0.4-1.2 0.4zm9.6-3.2q-0.5-1.7-1.9-2.6-1.3-0.8-2.9-0.8-1.6 0-3 0.9-1.3 1-1.8 2.5zm-14.4 8.2q0 0.7-0.5 1.2-0.5 0.5-1.2 0.5-0.6 0-1.1-0.5-0.5-0.5-0.5-1.2v-5h-6.9v5q0 0.7-0.5 1.2-0.5 0.5-1.2 0.5-0.7 0-1.2-0.5-0.4-0.5-0.4-1.2v-13.4q0-0.6 0.4-1.1 0.6-0.5 1.2-0.5 0.6 0 1.2 0.5 0.5 0.5 0.5 1.1v5.1h6.9v-5.1q0-0.6 0.5-1.1 0.5-0.5 1.1-0.5 0.6 0 1.2 0.5 0.5 0.5 0.5 1.1zm-15.7 0.1q0 0.7-0.5 1.2-0.5 0.5-1.2 0.5-0.6 0-1.1-0.5l-0.2-0.3-0.2-0.2q-1.5 1-3.6 1-2.7 0-4.7-2-1.9-1.9-2-4.7v-8.4q0-0.6 0.5-1.1 0.5-0.5 1.1-0.5 0.7 0 1.2 0.5 0.5 0.5 0.5 1.1v8.3q0 1.5 1 2.5 1 1 2.4 1 1.5 0 2.5-1 0.9-0.9 1-2.2v-8.6q0-0.6 0.5-1.1 0.5-0.5 1.2-0.5 0.5 0 1.1 0.5 0.5 0.5 0.5 1.1zm-15.5 0.1q0 0.7-0.5 1.1-0.5 0.5-1.2 0.5-0.6 0-1.1-0.5-0.5-0.4-0.5-1.1v-8.4q0-1.4-1-2.4-1.1-1-2.4-1-1.3 0-2.4 1-1 1-1 2.4v8.4q0 0.7-0.4 1.1-0.5 0.5-1.2 0.5-0.7 0-1.2-0.5-0.5-0.4-0.5-1.1v-8.4q0-1.3-0.9-2.4-1.1-1-2.4-1-1.4 0-2.4 1-1 1-1 2.4v8.4q0 0.7-0.5 1.1-0.5 0.5-1.2 0.5-0.6 0-1.1-0.5-0.5-0.4-0.5-1.1v-8.4q0-2.7 1.9-4.7 2-2 4.8-2 3.1 0 5 2.3 2-2.3 5-2.3 2.8 0 4.7 2 2 2 2 4.7 0 0.1 0 0.1 0 0.1 0 0.2zm-25.5-0.1q0 0.7-0.5 1.1-0.5 0.5-1.1 0.5-0.7 0-1.2-0.5-0.5-0.4-0.5-1.1v-5.1h-6.9v5.1q0 0.7-0.5 1.1-0.5 0.5-1.2 0.5-0.6 0-1.1-0.5-0.5-0.4-0.5-1.1v-13.4q0-0.6 0.5-1.2 0.5-0.5 1.1-0.5 0.6 0 1.2 0.5 0.5 0.5 0.5 1.2v5h6.9v-5q0-0.6 0.5-1.2 0.6-0.5 1.2-0.5 0.6 0 1.1 0.5 0.5 0.5 0.5 1.2zm-18-0.8q-2.4 2.5-5.9 2.5-3.4 0-5.9-2.5-2.4-2.4-2.4-5.9 0-3.4 2.4-5.9 2.5-2.4 5.9-2.4 3.5 0 5.9 2.4 2.5 2.5 2.5 5.9 0 3.5-2.5 5.9zm-2.3-9.4q-1.5-1.5-3.6-1.5-2.1 0-3.5 1.5-1.5 1.5-1.5 3.5 0 2.1 1.5 3.6 1.4 1.5 3.5 1.5 2.1 0 3.6-1.5 1.5-1.6 1.5-3.6 0-2-1.5-3.5zm-23 1.8l-2 2.1v6.4q0 0.7-0.5 1.2-0.5 0.5-1.2 0.5-0.7 0-1.2-0.5-0.4-0.5-0.4-1.2v-20.1q0-0.6 0.4-1.2 0.6-0.4 1.2-0.4 0.6 0 1.2 0.4 0.5 0.6 0.5 1.2v9l9.2-9.8q0.4-0.5 1-0.6 0.7-0.1 1.3 0.3 0.5 0.4 0.6 1.1 0.1 0.7-0.3 1.2l-7.5 8 7.6 9.9q0.4 0.5 0.4 1.2-0.1 0.7-0.7 1.1-0.4 0.4-1 0.4-0.8 0-1.3-0.6z"/>
	<path id="Layer" fill-rule="evenodd" class="s6" d="m217 77.2v8.4h-1.1v-3.3h-0.7q-0.6 0-0.9 0.2-0.3 0.2-0.9 1.3l-1 1.8h-1.4l1.3-2.2q0.5-1.1 1.1-1.2-1-0.2-1.5-0.9-0.5-0.7-0.5-1.6 0-1.2 0.7-1.9 0.6-0.6 1.8-0.6zm-1.2 1.2h-1.6q-1 0-1.3 0.4-0.3 0.4-0.3 0.9 0 0.8 0.4 1.1 0.5 0.4 1.6 0.4h1.2zm-11.6-1.2h1.1v6.4l3.3-6.4h1.2v8.4h-1.2v-6.4l-3.2 6.4h-1.2zm-7.3 0h1.1v3.5h3.2v-3.5h1.2v8.4h-1.2v-3.7h-3.2v3.7h-1.1zm-3 7.4q-0.6 0.6-1.2 0.9-0.6 0.3-1.3 0.3-1 0-1.7-0.6-0.6-0.7-0.6-1.8 0-0.7 0.3-1.3 0.3-0.5 0.8-0.8 0.5-0.4 1.6-0.5 1.4-0.2 2-0.5v-0.4q0-0.8-0.3-1.2-0.4-0.5-1.3-0.5-0.8 0-1.2 0.4-0.4 0.3-0.6 1.2l-1.1-0.2q0.2-1.3 1-1.9 0.7-0.7 2.1-0.7 1 0 1.7 0.5 0.6 0.4 0.7 1 0.2 0.6 0.2 1.7v1.9q0 2 0.1 2.5 0 0.6 0.2 1h-1.1q-0.2-0.4-0.3-1zm-0.1-3.2q-0.6 0.3-1.9 0.6-0.7 0.1-1 0.3-0.3 0.1-0.4 0.4-0.2 0.3-0.2 0.7 0 0.6 0.4 1 0.4 0.3 1 0.3 0.6 0 1.1-0.3 0.5-0.3 0.8-0.9 0.2-0.5 0.2-1.5zm-11.5-4.3h5.4v8.5h-1.2v-7.3h-3v7.3h-1.2zm-9 0h1.7l1.8 6.7 2-6.7h1.7v8.4h-1.2v-6.8l-2 6.8h-1l-1.9-7.1v7.1h-1.1zm-7.9 4.2q0-2.2 0.9-3.3 0.9-1.1 2.3-1.1 1.3 0 2.2 1.1 0.9 1.1 0.9 3.2 0 2.3-0.8 3.4-0.9 1.1-2.3 1.1-1.4 0-2.3-1.1-0.9-1.1-0.9-3.3zm1.2 0q0 1.6 0.6 2.4 0.6 0.8 1.4 0.8 0.8 0 1.4-0.8 0.6-0.8 0.6-2.4 0-1.6-0.6-2.4-0.6-0.8-1.4-0.8-0.9 0-1.4 0.8-0.6 0.8-0.6 2.4zm-6.6-4.2h1.2v3.6q0.5 0 0.8-0.2 0.2-0.3 0.6-1.6 0.3-1 0.6-1.3 0.2-0.3 0.4-0.4 0.3-0.1 1-0.1h0.1v1.2l-0.3-0.1q-0.4 0-0.5 0.2-0.2 0.1-0.3 0.5-0.4 1.3-0.6 1.6-0.2 0.4-0.7 0.7 0.7 0.2 1.4 1.7l1.3 2.6h-1.3l-1.2-2.6q-0.4-0.8-0.7-1-0.2-0.3-0.6-0.3v3.9h-1.2zm-5.4 0v8.4h-1.2v-3.2h-0.7q-0.5 0-0.8 0.1-0.3 0.2-0.9 1.3l-1 1.8h-1.4l1.2-2.2q0.6-1.1 1.1-1.2-0.9-0.2-1.4-0.9-0.5-0.7-0.5-1.6 0-1.2 0.6-1.8 0.7-0.7 1.8-0.7zm-1.1 1.2h-1.7q-1 0-1.3 0.4-0.3 0.4-0.3 0.9 0 0.8 0.5 1.1 0.4 0.4 1.5 0.4h1.3zm-7.2 6.2q-0.6 0.6-1.2 0.9-0.6 0.3-1.3 0.3-1 0-1.7-0.6-0.6-0.7-0.6-1.8 0-0.7 0.3-1.3 0.3-0.5 0.8-0.9 0.5-0.3 1.6-0.4 1.4-0.2 2-0.5v-0.4q0-0.9-0.3-1.2-0.4-0.5-1.3-0.5-0.8 0-1.2 0.3-0.4 0.4-0.6 1.3l-1.1-0.2q0.2-1.4 1-2 0.7-0.6 2.1-0.6 1 0 1.6 0.4 0.6 0.4 0.8 1 0.2 0.6 0.2 1.8v1.9q0 2 0 2.5 0.1 0.5 0.3 1h-1.2q-0.1-0.4-0.2-1zm-0.1-3.2q-0.6 0.3-1.9 0.5-0.7 0.2-1 0.3-0.3 0.2-0.4 0.5-0.2 0.3-0.2 0.7 0 0.6 0.4 0.9 0.4 0.4 1 0.4 0.6 0 1.1-0.3 0.5-0.4 0.8-0.9 0.2-0.5 0.2-1.6zm-10.1-4.2h1.1v3.7q0.6 0 0.8-0.3 0.2-0.3 0.6-1.5 0.4-1 0.6-1.4 0.2-0.3 0.5-0.4 0.2-0.1 0.9-0.1h0.2v1.2h-0.4q-0.3 0-0.5 0.1-0.1 0.2-0.2 0.5-0.4 1.3-0.7 1.7-0.2 0.3-0.7 0.6 0.8 0.3 1.5 1.7l1.2 2.6h-1.2l-1.3-2.6q-0.3-0.8-0.6-1-0.3-0.3-0.7-0.3v3.9h-1.1zm-2.7 5.4l1.1 0.2q-0.2 1.5-0.9 2.3-0.8 0.8-1.9 0.8-1.3 0-2.2-1.2-0.9-1.1-0.9-3.3 0-2.1 0.9-3.2 0.9-1.1 2.2-1.1 1.1 0 1.8 0.6 0.7 0.7 0.9 2l-1.1 0.2q-0.2-0.8-0.6-1.2-0.4-0.5-0.9-0.5-0.9 0-1.4 0.8-0.6 0.8-0.6 2.4 0 1.8 0.5 2.5 0.6 0.8 1.4 0.8 0.6 0 1.1-0.5 0.5-0.5 0.6-1.6zm-11.3-5.4h1.1v3.3h1.5q1.5 0 2.2 0.8 0.7 0.7 0.7 1.8 0 1-0.6 1.8-0.6 0.8-2.1 0.8h-2.8zm1.1 7.2h1.2q1.3 0 1.7-0.4 0.3-0.4 0.3-1 0-0.6-0.4-1-0.4-0.4-1.4-0.4h-1.4zm-8.3-7.2h5.3v8.4h-1.1v-7.2h-3.1v4.1q0 1.5 0 2-0.1 0.5-0.5 0.8-0.3 0.3-1 0.3-0.4 0-0.9 0v-1.2q0.8 0 1-0.1 0.1 0 0.2-0.2 0.1-0.2 0.1-1.4zm-3.3 5.7l1.2 0.2q-0.3 1.4-1.1 2.1-0.8 0.6-1.9 0.6-1.5 0-2.4-1.1-0.8-1.1-0.8-3.2 0-2.2 0.9-3.3 0.8-1.2 2.2-1.2 1.3 0 2.2 1.2 0.9 1.1 0.9 3.2v0.4h-5.1q0.1 1.4 0.7 2.1 0.6 0.8 1.4 0.8 1.3 0 1.8-1.8zm-3.8-2.3h3.8q-0.1-1.1-0.5-1.6-0.5-0.8-1.4-0.8-0.8 0-1.3 0.7-0.5 0.6-0.6 1.7zm-7.5-3.4h5.5v1.2h-2.2v7.2h-1.2v-7.2h-2.1zm-2.4 7.4q-0.6 0.6-1.2 0.9-0.6 0.3-1.3 0.3-1.1 0-1.7-0.6-0.6-0.7-0.6-1.8 0-0.7 0.3-1.3 0.3-0.5 0.8-0.9 0.5-0.3 1.5-0.4 1.4-0.2 2.1-0.5v-0.4q0-0.8-0.3-1.2-0.4-0.5-1.3-0.5-0.8 0-1.2 0.3-0.4 0.4-0.6 1.3l-1.1-0.2q0.2-1.4 0.9-2 0.8-0.6 2.2-0.6 1 0 1.6 0.4 0.6 0.4 0.8 1 0.2 0.6 0.2 1.8v1.9q0 2 0 2.5 0.1 0.5 0.3 1h-1.2q-0.2-0.4-0.2-1zm-0.1-3.2q-0.6 0.3-1.9 0.5-0.7 0.2-1 0.3-0.3 0.2-0.4 0.5-0.2 0.3-0.2 0.7 0 0.6 0.4 0.9 0.3 0.4 1 0.4 0.6 0 1.1-0.3 0.5-0.3 0.8-0.9 0.2-0.5 0.2-1.6zm-11.1-4.2h4.7v7.3h0.7v3.5h-0.9v-2.4h-5.3v2.4h-1v-3.5h0.6q1.2-2 1.2-7.3zm0.9 1.2q-0.1 4.1-1 6.1h3.6v-6.1zm-6.4 3.4v-1.1q0.7 0 1 0 0.2-0.1 0.4-0.4 0.3-0.3 0.3-0.8 0-0.6-0.3-0.9-0.3-0.4-0.8-0.4-1 0-1.4 1.4l-1-0.2q0.5-2.4 2.4-2.4 1.1 0 1.7 0.8 0.6 0.7 0.6 1.7 0 1-0.8 1.7 1 0.7 1 2.1 0 1.1-0.6 1.8-0.7 0.7-1.9 0.7-2.3 0-2.7-2.5l1.1-0.3q0.2 0.8 0.6 1.2 0.5 0.5 1 0.5 0.6 0 1-0.4 0.4-0.4 0.4-1.1 0-0.5-0.3-0.8-0.2-0.4-0.5-0.5-0.2-0.1-0.8-0.1zm-9-4.6h1.2v6.4l3.2-6.4h1.2v8.4h-1.2v-6.4l-3.2 6.4h-1.2zm-4.9 5v-1.5h3.5v1.5zm-7.3-0.7q0-2.2 0.9-3.3 0.8-1.1 2.2-1.1 1.4 0 2.3 1.1 0.9 1.1 0.9 3.2 0 2.2-0.9 3.3-0.9 1.1-2.3 1.2-1.3 0-2.2-1.2-0.9-1.1-0.9-3.2zm1.1-0.1q0 1.7 0.6 2.5 0.6 0.8 1.5 0.8 0.8 0 1.3-0.8 0.6-0.8 0.6-2.5 0-1.6-0.6-2.4-0.6-0.8-1.4-0.8-0.8 0-1.4 0.8-0.6 0.8-0.6 2.4zm-8-4.2h1.1v3.5h3.2v-3.5h1.1v8.5h-1.1v-3.8h-3.2v3.8h-1.1zm-9.1 0h1.8l1.8 6.7 2-6.7h1.6v8.4h-1.1v-6.8l-2 6.8h-1.1l-1.9-7.1v7.1h-1.1zm-3 7.4q-0.6 0.6-1.2 0.9-0.6 0.3-1.3 0.3-1 0-1.7-0.7-0.6-0.6-0.6-1.7 0-0.7 0.3-1.3 0.3-0.6 0.8-0.9 0.5-0.3 1.6-0.5 1.4-0.2 2-0.4v-0.4q0-0.9-0.3-1.2-0.4-0.5-1.3-0.5-0.8 0-1.2 0.3-0.4 0.3-0.6 1.3l-1.1-0.2q0.2-1.4 1-2 0.7-0.6 2.1-0.6 1 0 1.6 0.4 0.6 0.4 0.8 1 0.2 0.6 0.2 1.8v1.9q0 2 0 2.5 0.1 0.5 0.3 1h-1.2q-0.1-0.4-0.2-1zm-0.1-3.2q-0.6 0.3-1.9 0.5-0.7 0.1-1 0.3-0.3 0.2-0.4 0.5-0.2 0.3-0.2 0.7 0 0.6 0.4 0.9 0.4 0.4 1 0.4 0.6 0 1.1-0.4 0.5-0.3 0.8-0.8 0.2-0.6 0.2-1.6zm-11.5-4.2h5.4v8.4h-1.2v-7.2h-3v4.2q0 1.4-0.1 1.9-0.1 0.5-0.4 0.8-0.4 0.4-1 0.4-0.4 0-0.9-0.1v-1.2q0.8 0 0.9 0 0.2-0.1 0.3-0.3 0-0.2 0-1.4zm-6.3 0h1.1v3.7q0.6 0 0.8-0.3 0.2-0.2 0.6-1.5 0.4-1 0.6-1.3 0.2-0.3 0.4-0.4 0.3-0.2 1-0.2h0.2v1.2h-0.4q-0.3 0-0.5 0.1-0.2 0.2-0.3 0.6-0.4 1.2-0.6 1.6-0.2 0.4-0.7 0.6 0.7 0.3 1.4 1.8l1.3 2.6h-1.3l-1.2-2.6q-0.4-0.8-0.6-1.1-0.3-0.2-0.7-0.2v3.9h-1.1zm-2.8 5.7l1.2 0.2q-0.3 1.3-1.1 2-0.8 0.7-1.9 0.7-1.4 0-2.3-1.1-0.9-1.1-0.9-3.2 0-2.2 0.9-3.4 0.9-1.1 2.2-1.1 1.4 0 2.2 1.1 0.9 1.1 0.9 3.3v0.3h-5.1q0.1 1.5 0.7 2.2 0.6 0.7 1.4 0.7 1.3 0 1.8-1.7zm-3.8-2.3h3.8q-0.1-1.1-0.5-1.7-0.5-0.7-1.4-0.7-0.7 0-1.3 0.6-0.5 0.7-0.6 1.8zm-9.5 5v-11.6h3.5q1.3 0 1.9 0.2 0.8 0.3 1.3 1.1 0.4 0.8 0.4 2 0 1.6-0.8 2.6-0.7 0.9-2.7 0.9h-2.4v4.8zm1.3-6.1h2.4q1.1 0 1.7-0.5 0.5-0.6 0.5-1.6 0-0.7-0.3-1.2-0.2-0.5-0.6-0.7-0.4-0.2-1.3-0.2h-2.4z"/>
</svg>