<?xml version="1.0" encoding="utf-8"?>
<svg width="217" height="88" viewBox="0 0 45.749 67.273" fill="none" xmlns="http://www.w3.org/2000/svg">
  <path fill-rule="evenodd" clip-rule="evenodd" d="M8.44329 1.75684C11.0193 1.45324 13.3745 3.31289 13.6781 5.8881L16.4924 29.7657C16.796 32.3409 14.9372 34.6969 12.3611 35.0005C9.78508 35.3041 7.42991 33.4453 7.12632 30.8693L4.31203 6.99248C4.00843 4.41643 5.86725 2.06044 8.44329 1.75684Z" fill="#4D62A9"/>
  <path fill-rule="evenodd" clip-rule="evenodd" d="M25.9501 0.0427689C28.5204 0.390212 30.3378 2.77764 29.9904 5.34789L26.3489 32.2375C26.0006 34.8078 23.6132 36.6252 21.0429 36.2769C18.4727 35.9295 16.6552 33.5421 17.0035 30.9718L20.6442 4.08221C20.9924 1.51196 23.3799 -0.305501 25.9501 0.0427689Z" fill="#E31E24"/>
  <path fill-rule="evenodd" clip-rule="evenodd" d="M24.5968 49.9116C24.8103 52.4967 22.8704 54.7857 20.2861 54.9992L5.10444 56.2541C2.5193 56.4684 0.230311 54.5285 0.0160544 51.9433C-0.197375 49.359 1.74252 47.0692 4.32683 46.8558L19.5084 45.6008C22.0936 45.3874 24.3826 47.3273 24.5968 49.9116Z" fill="#7D8E28"/>
  <path fill-rule="evenodd" clip-rule="evenodd" d="M34.7323 26.163C37.1503 27.1011 38.3605 29.8467 37.4225 32.2648L33.3334 42.7998C32.3953 45.2178 29.6497 46.4281 27.2316 45.49C24.8136 44.5519 23.6033 41.8062 24.5414 39.3882L28.6305 28.8524C29.5686 26.4344 32.3142 25.2241 34.7323 26.163Z" fill="#FFED00"/>
  <path fill-rule="evenodd" clip-rule="evenodd" d="M43.6912 34.1824C45.4011 35.2503 45.9264 37.5236 44.8584 39.2343L40.2035 46.6862C39.1355 48.3961 36.8623 48.9214 35.1523 47.8534H35.1515C33.4416 46.7846 32.9163 44.5122 33.9843 42.8014L38.6392 35.3496C39.708 33.6389 41.9804 33.1144 43.6912 34.1824Z" fill="#2B2A29"/>
  <path fill-rule="evenodd" clip-rule="evenodd" d="M34.3781 49.0918C33.3176 48.4291 32.5822 47.4298 32.2248 46.3139C30.6249 47.3165 28.5874 47.5829 26.7029 46.8516C23.5379 45.6231 21.9512 42.0246 23.1797 38.8596L23.5768 37.8371L11.4196 36.195C8.9395 35.86 6.37918 38.2921 6.86973 40.7449L7.74827 45.1342L19.3909 44.1713C21.0181 44.0373 22.6221 44.5568 23.8671 45.6115C25.1138 46.6671 25.8906 48.1644 26.0254 49.7941C26.1603 51.4229 25.6399 53.0261 24.5844 54.2728C23.5288 55.5178 22.0323 56.2938 20.4035 56.4286L10.1779 57.274L11.2136 62.4501C11.705 64.9029 13.2685 67 15.7643 67H30.749C33.2415 67 34.752 64.8789 35.2997 62.4501L38.1628 49.7469C36.9037 50.0166 35.5445 49.8206 34.3781 49.0918Z" fill="#728125"/>
</svg>